<svg aria-hidden="true" style="position: absolute; width: 0; height: 0; overflow: hidden;" version="1.1" xmlns="http://www.w3.org/2000/svg" xmlns:xlink="http://www.w3.org/1999/xlink">
<defs>
<symbol id="icon-reviews-back-btn" viewBox="0 0 17 32">
<path fill="#70aeff" style="fill: var(--color1, #70aeff)" d="M14.188 30.734c0.317 0.317 0.747 0.495 1.196 0.495s0.879-0.178 1.196-0.495v-29.469c-0.317-0.317-0.747-0.495-1.196-0.495s-0.879 0.178-1.196 0.495l-13.538 13.538c-0.317 0.317-0.495 0.747-0.495 1.196s0.178 0.879 0.495 1.196l13.538 13.538z"></path>
</symbol>
<symbol id="icon-reviews-icon-one" viewBox="0 0 33 32">
<path fill="#9b3c00" style="fill: var(--color2, #9b3c00)" d="M17.335 27.045c5.965-3.829 8.861-7.781 8.861-14.384-0.393 0.123-0.736 0.123-1.080 0.123-3.117 0-6.136-2.111-6.136-5.915 0-3.952 2.528-6.406 6.136-6.406 4.664 0 7.339 3.731 7.339 10.432 0 9.327-4.296 16.028-12.322 20.667l-2.798-4.516zM0.153 27.045c5.965-3.829 8.861-7.781 8.861-14.384-0.393 0.123-0.736 0.123-1.080 0.123-3.117 0-6.136-2.111-6.136-5.915 0-3.952 2.528-6.406 6.136-6.406 4.639 0 7.315 3.731 7.315 10.432 0 9.327-4.295 16.028-12.322 20.667l-2.798-4.516h0.025z"></path>
</symbol>
<symbol id="icon-reviews-icon-three" viewBox="0 0 31 32">
<path fill="#f5d6af" style="fill: var(--color3, #f5d6af)" d="M21.218 30.052c-0.092 0.088-0.182 0.178-0.275 0.264-0.525 0.483-1.134 0.811-1.832 0.96-1.205 0.256-2.346 0.086-3.413-0.536-0.398-0.235-0.762-0.521-1.083-0.853-0.378-0.387-0.703-0.822-0.967-1.294-0.425-0.756-0.701-1.564-0.859-2.415-0.117-0.64-0.168-1.29-0.152-1.94 0.011-0.61-0.027-1.219-0.114-1.822-0.104-0.762-0.267-1.511-0.436-2.26-0.15-0.662-0.306-1.321-0.426-1.988-0.096-0.502-0.155-1.010-0.178-1.52-0.022-0.638 0.038-1.266 0.257-1.874 0.162-0.452 0.407-0.869 0.721-1.232 0.356-0.414 0.764-0.78 1.214-1.088 0.682-0.464 1.475-0.738 2.298-0.794 0.573-0.044 1.142-0.004 1.709 0.067 0.602 0.076 1.199 0.185 1.798 0.282 0.674 0.109 1.351 0.203 2.034 0.244 0.68 0.041 1.362 0.021 2.038-0.059 0.816-0.099 1.641-0.097 2.457 0.007 0.698 0.088 1.381 0.272 2.029 0.546 0.505 0.214 0.978 0.497 1.405 0.841 0.651 0.528 1.149 1.172 1.453 1.959 0.282 0.729 0.358 1.483 0.26 2.255-0.072 0.568-0.227 1.112-0.498 1.619-0.095 0.18-0.204 0.353-0.325 0.517-0.017 0.023-0.032 0.046-0.046 0.070-0.007 0.029-0.035 0.043-0.051 0.066-0.013 0.020-0.036 0.031-0.041 0.056l-0.349 0.386c-0.025 0.006-0.033 0.030-0.049 0.044l-0.074 0.082c-0.308 0.32-0.665 0.577-1.027 0.83-0.613 0.426-1.257 0.806-1.879 1.22-0.505 0.331-0.988 0.697-1.443 1.094-0.311 0.279-0.601 0.581-0.868 0.903-0.215 0.255-0.399 0.536-0.573 0.82-0.343 0.562-0.639 1.149-0.936 1.737-0.313 0.622-0.627 1.243-1.004 1.829-0.154 0.238-0.312 0.472-0.505 0.681-0.040 0.043-0.072 0.091-0.113 0.134-0.054 0.053-0.093 0.116-0.156 0.16zM8.438 1.236c0.71-0.619 1.543-0.831 2.465-0.734 0.632 0.067 1.219 0.278 1.774 0.583 0.475 0.264 0.913 0.589 1.302 0.968 0.715 0.687 1.278 1.518 1.65 2.437 0.266 0.636 0.419 1.315 0.451 2.004 0.025 0.618-0.053 1.22-0.284 1.798-0.163 0.405-0.389 0.768-0.701 1.075-0.538 0.532-1.191 0.807-1.942 0.856-0.641 0.042-1.252-0.089-1.842-0.329-0.41-0.17-0.799-0.387-1.158-0.647-0.247-0.177-0.481-0.371-0.7-0.581-0.516-0.496-0.947-1.058-1.293-1.684-0.372-0.658-0.625-1.377-0.749-2.123-0.101-0.633-0.1-1.265 0.046-1.892 0.103-0.459 0.296-0.892 0.569-1.274 0.004-0.016 0.017-0.025 0.026-0.037l0.030-0.033c0.013-0.018 0.036-0.028 0.037-0.053l0.206-0.228c0.025-0.004 0.032-0.028 0.048-0.042l0.030-0.034c0.010-0.011 0.018-0.024 0.034-0.030zM2.218 24.618c-0.202-0.202-0.376-0.428-0.53-0.668-0.3-0.467-0.504-0.971-0.565-1.526-0.075-0.605 0.055-1.217 0.369-1.739 0.261-0.435 0.621-0.772 1.055-1.030 0.499-0.298 1.045-0.467 1.619-0.537 0.89-0.109 1.753 0.014 2.593 0.319 0.44 0.16 0.854 0.37 1.243 0.63 0.188 0.126 0.367 0.266 0.539 0.414 0.325 0.279 0.611 0.601 0.849 0.958 0.317 0.479 0.532 0.996 0.598 1.57 0.082 0.641-0.068 1.29-0.422 1.831-0.265 0.41-0.621 0.726-1.042 0.969-0.567 0.327-1.182 0.491-1.831 0.539-0.627 0.044-1.257-0.020-1.862-0.19-0.596-0.162-1.162-0.417-1.678-0.756l-0.271-0.185c-0.044-0.025-0.079-0.063-0.124-0.086-0.019-0.010-0.032-0.025-0.048-0.039-0.022-0.014-0.035-0.042-0.065-0.047l-0.296-0.267c-0.010-0.043-0.049-0.061-0.076-0.089-0.020-0.021-0.048-0.037-0.056-0.068zM1.881 15.463c-0.585-0.532-1.038-1.093-1.37-1.749-0.251-0.495-0.42-1.016-0.467-1.573-0.053-0.6 0.040-1.174 0.324-1.71s0.702-0.938 1.236-1.222c0.471-0.25 0.976-0.382 1.505-0.429 0.842-0.074 1.656 0.063 2.447 0.351 0.502 0.183 0.976 0.423 1.421 0.719 0.252 0.168 0.494 0.351 0.723 0.55 0.289 0.25 0.555 0.526 0.794 0.825 0.498 0.626 0.865 1.318 1.027 2.108 0.106 0.485 0.102 0.988-0.012 1.472-0.127 0.537-0.409 1.025-0.812 1.403-0.368 0.35-0.804 0.586-1.288 0.737-0.63 0.197-1.276 0.234-1.929 0.161-0.768-0.091-1.513-0.323-2.198-0.685-0.378-0.196-0.737-0.426-1.073-0.687-0.114-0.084-0.223-0.174-0.327-0.27zM23.601 1.62l0.068 0.061c0.543 0.537 0.938 1.169 1.226 1.871 0.225 0.548 0.364 1.128 0.412 1.719 0.061 0.762-0.024 1.506-0.317 2.218-0.17 0.425-0.423 0.812-0.746 1.136-0.466 0.474-1.086 0.764-1.749 0.817-0.563 0.049-1.096-0.065-1.606-0.294-0.454-0.205-0.869-0.488-1.226-0.835-0.795-0.763-1.305-1.692-1.58-2.753-0.094-0.358-0.15-0.725-0.169-1.094-0.038-0.76 0.069-1.493 0.384-2.192 0.175-0.395 0.424-0.752 0.735-1.051 0.466-0.452 1.075-0.725 1.722-0.773 0.6-0.048 1.163 0.088 1.701 0.349 0.297 0.143 0.573 0.32 0.825 0.533l0.069 0.062c0.081 0.078 0.164 0.154 0.25 0.227z"></path>
</symbol>
<symbol id="icon-reviews-icon-two" viewBox="0 0 32 32">
<path fill="#f5d6af" style="fill: var(--color3, #f5d6af)" d="M2.086 21.32c-0.089-0.091-0.179-0.181-0.266-0.273-0.486-0.522-0.819-1.129-0.973-1.825-0.264-1.203-0.102-2.345 0.512-3.417 0.232-0.399 0.516-0.765 0.845-1.089 0.384-0.38 0.817-0.708 1.287-0.975 0.753-0.431 1.559-0.712 2.409-0.875 0.639-0.122 1.288-0.177 1.939-0.165 0.61 0.007 1.219-0.035 1.822-0.126 0.761-0.11 1.509-0.277 2.257-0.451 0.661-0.154 1.319-0.315 1.985-0.439 0.501-0.099 1.008-0.162 1.518-0.188 0.638-0.027 1.267 0.029 1.875 0.244 0.453 0.159 0.872 0.401 1.237 0.713 0.416 0.353 0.785 0.758 1.097 1.206 0.468 0.679 0.748 1.47 0.81 2.292 0.048 0.572 0.012 1.142-0.056 1.709-0.071 0.603-0.176 1.2-0.27 1.8-0.105 0.675-0.194 1.352-0.23 2.036-0.036 0.68-0.012 1.362 0.073 2.038 0.105 0.815 0.108 1.641 0.010 2.457-0.083 0.699-0.262 1.383-0.532 2.033-0.21 0.507-0.49 0.981-0.832 1.411-0.524 0.655-1.164 1.157-1.949 1.466-0.727 0.287-1.48 0.368-2.253 0.275-0.569-0.068-1.113-0.219-1.622-0.487-0.181-0.094-0.354-0.202-0.519-0.322-0.023-0.016-0.046-0.032-0.070-0.046-0.029-0.007-0.043-0.034-0.067-0.051-0.020-0.013-0.031-0.036-0.057-0.040l-0.389-0.346c-0.006-0.025-0.030-0.033-0.045-0.049l-0.082-0.073c-0.322-0.306-0.582-0.661-0.837-1.022-0.43-0.61-0.815-1.251-1.233-1.87-0.335-0.503-0.703-0.983-1.104-1.435-0.281-0.309-0.585-0.597-0.909-0.862-0.256-0.213-0.538-0.395-0.824-0.568-0.565-0.339-1.154-0.632-1.743-0.924-0.624-0.308-1.247-0.618-1.836-0.991-0.239-0.152-0.474-0.309-0.685-0.5-0.043-0.040-0.092-0.072-0.135-0.112-0.053-0.053-0.117-0.092-0.161-0.154zM30.814 8.343c0.624 0.706 0.842 1.537 0.751 2.46-0.063 0.633-0.27 1.22-0.571 1.778-0.261 0.477-0.583 0.917-0.959 1.309-0.682 0.72-1.509 1.288-2.426 1.666-0.635 0.27-1.312 0.428-2 0.464-0.618 0.029-1.221-0.045-1.8-0.272-0.406-0.16-0.771-0.384-1.079-0.693-0.535-0.535-0.815-1.186-0.869-1.936-0.046-0.64 0.080-1.253 0.317-1.845 0.167-0.411 0.381-0.801 0.639-1.162 0.175-0.248 0.367-0.484 0.576-0.704 0.493-0.52 1.051-0.954 1.675-1.305 0.656-0.376 1.373-0.634 2.118-0.763 0.632-0.105 1.264-0.109 1.892 0.033 0.459 0.1 0.894 0.29 1.278 0.561 0.016 0.003 0.025 0.017 0.037 0.025l0.033 0.030c0.018 0.013 0.028 0.035 0.053 0.037l0.229 0.204c0.004 0.025 0.028 0.032 0.042 0.048l0.034 0.030c0.011 0.010 0.025 0.018 0.030 0.034zM7.389 2.283c0.201-0.204 0.425-0.379 0.665-0.535 0.465-0.304 0.968-0.51 1.523-0.576 0.604-0.079 1.218 0.047 1.742 0.357 0.437 0.258 0.777 0.616 1.038 1.048 0.301 0.497 0.474 1.041 0.548 1.615 0.115 0.89-0.002 1.753-0.301 2.595-0.157 0.441-0.364 0.857-0.622 1.248-0.125 0.189-0.263 0.368-0.411 0.542-0.277 0.327-0.597 0.615-0.952 0.855-0.476 0.321-0.992 0.539-1.566 0.609-0.64 0.086-1.291-0.059-1.834-0.41-0.411-0.262-0.73-0.616-0.976-1.035-0.331-0.564-0.499-1.179-0.551-1.827-0.048-0.627 0.012-1.257 0.178-1.863 0.158-0.597 0.409-1.165 0.744-1.683l0.184-0.272c0.025-0.045 0.062-0.079 0.085-0.124 0.010-0.019 0.025-0.032 0.039-0.048 0.014-0.022 0.042-0.035 0.047-0.065l0.265-0.298c0.043-0.010 0.060-0.049 0.088-0.076 0.021-0.020 0.036-0.048 0.068-0.056zM16.542 1.883c0.528-0.589 1.086-1.046 1.74-1.382 0.494-0.255 1.013-0.427 1.57-0.478 0.6-0.057 1.174 0.032 1.713 0.312s0.942 0.696 1.23 1.227c0.253 0.469 0.389 0.973 0.439 1.502 0.080 0.842-0.052 1.656-0.335 2.449-0.18 0.504-0.416 0.979-0.71 1.426-0.166 0.254-0.347 0.496-0.545 0.727-0.248 0.291-0.523 0.559-0.82 0.8-0.623 0.502-1.312 0.874-2.101 1.041-0.485 0.109-0.988 0.109-1.472-0.002-0.538-0.123-1.028-0.402-1.408-0.802-0.353-0.366-0.592-0.8-0.745-1.283-0.201-0.629-0.243-1.274-0.174-1.928 0.086-0.769 0.313-1.516 0.67-2.202 0.193-0.379 0.421-0.74 0.68-1.078 0.083-0.114 0.173-0.224 0.268-0.329zM30.533 23.507l-0.061 0.068c-0.533 0.547-1.162 0.946-1.862 1.239-0.547 0.228-1.125 0.372-1.716 0.424-0.762 0.067-1.506-0.014-2.22-0.302-0.426-0.167-0.814-0.418-1.141-0.738-0.477-0.463-0.771-1.081-0.829-1.743-0.053-0.562 0.058-1.096 0.283-1.608 0.202-0.456 0.482-0.872 0.827-1.231 0.758-0.8 1.683-1.316 2.742-1.599 0.357-0.096 0.724-0.155 1.093-0.177 0.759-0.043 1.494 0.059 2.195 0.369 0.396 0.172 0.754 0.419 1.056 0.728 0.455 0.463 0.733 1.070 0.785 1.717 0.052 0.599-0.080 1.164-0.337 1.703-0.141 0.298-0.316 0.575-0.528 0.829l-0.061 0.069c-0.077 0.082-0.153 0.165-0.225 0.252z"></path>
</symbol>
<symbol id="icon-reviews-next-btn" viewBox="0 0 17 32">
<path fill="#016bec" style="fill: var(--color4, #016bec)" d="M3.042 30.734c-0.317 0.317-0.747 0.495-1.196 0.495s-0.879-0.178-1.196-0.495v-29.469c0.317-0.317 0.747-0.495 1.196-0.495s0.879 0.178 1.196 0.495l13.538 13.538c0.317 0.317 0.495 0.747 0.495 1.196s-0.178 0.879-0.495 1.196l-13.538 13.538z"></path>
</symbol>
<symbol id="icon-reviews-pagination-dot" viewBox="0 0 32 32">
<path fill="#016bec" style="fill: var(--color4, #016bec)" d="M16 0c3.135-0 6.201 0.921 8.817 2.648s4.667 4.185 5.898 7.068 1.588 6.064 1.027 9.149c-0.561 3.084-2.016 5.936-4.184 8.2s-4.953 3.842-8.010 4.537c-3.057 0.695-6.251 0.476-9.184-0.628s-5.478-3.047-7.318-5.586c-1.839-2.539-2.893-5.562-3.029-8.694l-0.016-0.694 0.016-0.694c0.179-4.119 1.941-8.010 4.919-10.862s6.942-4.443 11.065-4.444z"></path>
</symbol>
<symbol id="icon-faq-btn" viewBox="0 0 32 32">
<path fill="#fff" style="fill: var(--color5, #fff)" d="M26.642 11.747c0.229-0.232 0.358-0.546 0.358-0.874s-0.129-0.642-0.358-0.874h-21.285c-0.229 0.232-0.357 0.546-0.357 0.874s0.129 0.642 0.357 0.874l9.779 9.891c0.229 0.232 0.54 0.362 0.864 0.362s0.635-0.13 0.864-0.362l9.779-9.891z"></path>
</symbol>
</defs>
</svg>
