<svg aria-hidden="true" style="position: absolute; width: 0; height: 0; overflow: hidden;" version="1.1" xmlns="http://www.w3.org/2000/svg" xmlns:xlink="http://www.w3.org/1999/xlink">
<defs>
<symbol id="icon-Back-button" viewBox="0 0 17 32">
<path fill="#fff" style="fill: var(--color1, #fff)" d="M14.188 30.734c0.317 0.317 0.747 0.495 1.196 0.495s0.879-0.178 1.196-0.495v-29.469c-0.317-0.317-0.747-0.495-1.196-0.495s-0.879 0.178-1.196 0.495l-13.538 13.538c-0.317 0.317-0.495 0.747-0.495 1.196s0.178 0.879 0.495 1.196l13.538 13.538z"></path>
</symbol>
<symbol id="icon-Close-icon" viewBox="0 0 32 32">
<path fill="#fff" style="fill: var(--color1, #fff)" d="M15.999 20.244l10.606 10.606c0.563 0.563 1.326 0.879 2.122 0.879s1.559-0.316 2.122-0.879 0.879-1.326 0.879-2.122c0-0.796-0.316-1.559-0.879-2.122l-10.61-10.606 10.608-10.606c0.279-0.279 0.499-0.609 0.65-0.973s0.228-0.754 0.228-1.148c0-0.394-0.078-0.784-0.229-1.148s-0.372-0.695-0.651-0.973c-0.279-0.279-0.609-0.499-0.973-0.65s-0.754-0.228-1.148-0.228c-0.394 0-0.784 0.078-1.148 0.229s-0.695 0.372-0.973 0.651l-10.604 10.606-10.606-10.606c-0.277-0.287-0.608-0.515-0.973-0.673s-0.76-0.24-1.158-0.244c-0.398-0.004-0.793 0.072-1.162 0.223s-0.704 0.373-0.986 0.655c-0.282 0.282-0.505 0.616-0.656 0.985s-0.227 0.764-0.224 1.162c0.003 0.398 0.086 0.792 0.243 1.158s0.385 0.697 0.672 0.974l10.61 10.608-10.608 10.608c-0.286 0.277-0.515 0.608-0.672 0.974s-0.24 0.76-0.243 1.158c-0.003 0.398 0.073 0.793 0.224 1.162s0.374 0.703 0.656 0.985c0.282 0.282 0.617 0.504 0.986 0.655s0.764 0.226 1.162 0.223c0.398-0.004 0.792-0.087 1.158-0.244s0.697-0.386 0.973-0.673l10.604-10.604z"></path>
</symbol>
 <symbol id="icon-burger" viewBox="0 0 32 32">
  <path fill="#fff" d="M4.799 8.001c0-0.424 0.169-0.831 0.469-1.131s0.707-0.469 1.131-0.469h19.2c0.424 0 0.831 0.169 1.131 0.469s0.469 0.707 0.469 1.131-0.169 0.831-0.469 1.131c-0.3 0.3-0.707 0.469-1.131 0.469h-19.2c-0.424 0-0.831-0.169-1.131-0.469s-0.469-0.707-0.469-1.131z"></path>
  <path fill="#fff" d="M4.799 16.001c0-0.424 0.169-0.831 0.469-1.131s0.707-0.469 1.131-0.469h19.2c0.424 0 0.831 0.169 1.131 0.469s0.469 0.707 0.469 1.131c0 0.424-0.169 0.831-0.469 1.131s-0.707 0.469-1.131 0.469h-19.2c-0.424 0-0.831-0.169-1.131-0.469s-0.469-0.707-0.469-1.131z"></path>
  <path fill="#fff" d="M4.799 24.001c0-0.424 0.169-0.831 0.469-1.131s0.707-0.469 1.131-0.469h19.2c0.424 0 0.831 0.169 1.131 0.469s0.469 0.707 0.469 1.131c0 0.424-0.169 0.831-0.469 1.131s-0.707 0.469-1.131 0.469h-19.2c-0.424 0-0.831-0.169-1.131-0.469s-0.469-0.707-0.469-1.131z"></path>
  </symbol>
<symbol id="icon-pag-btn-next-active" viewBox="0 0 17 32">
<path fill="#016bec" style="fill: var(--color1, #016bec)" d="M3.042 30.734c-0.317 0.317-0.747 0.495-1.196 0.495s-0.879-0.178-1.196-0.495v-29.469c0.317-0.317 0.747-0.495 1.196-0.495s0.879 0.178 1.196 0.495l13.538 13.538c0.317 0.317 0.495 0.747 0.495 1.196s-0.178 0.879-0.495 1.196l-13.538 13.538z"></path>
</symbol>
<symbol id="icon-pagination-dot-dis" viewBox="0 0 32 32">
<path fill="#70aeff" style="fill: var(--color2, #70aeff)" d="M16 0c3.135-0 6.201 0.921 8.817 2.648s4.667 4.185 5.898 7.068 1.588 6.064 1.027 9.149c-0.561 3.084-2.016 5.936-4.184 8.2s-4.953 3.842-8.010 4.537c-3.057 0.695-6.251 0.476-9.184-0.628s-5.478-3.047-7.318-5.586c-1.839-2.539-2.893-5.562-3.029-8.694l-0.016-0.694 0.016-0.694c0.179-4.119 1.941-8.010 4.919-10.862s6.942-4.443 11.065-4.444z"></path>
</symbol>

<symbol id="icon-pag-btn-prev" viewBox="0 0 17 32">
<path fill="#70aeff" style="fill: var(--color2, #70aeff)" d="M14.188 30.734c0.317 0.317 0.747 0.495 1.196 0.495s0.879-0.178 1.196-0.495v-29.469c-0.317-0.317-0.747-0.495-1.196-0.495s-0.879 0.178-1.196 0.495l-13.538 13.538c-0.317 0.317-0.495 0.747-0.495 1.196s0.178 0.879 0.495 1.196l13.538 13.538z"></path>
</symbol>
</defs>
</svg>
